<?xml version="1.0" encoding="UTF-8"?> <svg xmlns="http://www.w3.org/2000/svg" width="1440" height="384" viewBox="0 0 1440 384" fill="none"><path d="M-3 387.9H1442.4L1443 -3.09961L-3 -1.79961V387.9Z" fill="#162A42"></path><path d="M539.3 229.9L536.5 240.7C536.4 241 536.2 241.3 536 241.5C535.7 241.7 535.4 241.8 535.1 241.8C534.8 241.8 534.5 241.7 534.2 241.5C533.9 241.3 533.8 241 533.7 240.7L531.1 230L521.1 227.4C520.8 227.3 520.5 227.1 520.3 226.9C520.1 226.6 520 226.3 520 226C520 225.7 520.1 225.3 520.3 225.1C520.5 224.8 520.8 224.6 521.1 224.5L531.1 221.5L533.7 211.1C533.8 210.8 534 210.5 534.2 210.3C534.5 210.1 534.8 210 535.1 210C535.4 210 535.7 210.1 536 210.3C536.3 210.5 536.4 210.8 536.5 211.1L539.3 221.5L549.2 224.5C549.5 224.6 549.8 224.8 550 225.1C550.2 225.4 550.3 225.7 550.3 226C550.3 226.3 550.2 226.7 550 226.9C549.8 227.1 549.5 227.4 549.2 227.4L539.3 229.9Z" fill="#102237"></path><path d="M1378.3 154.5L1375.5 165.3C1375.4 165.6 1375.2 165.9 1375 166.1C1374.7 166.3 1374.4 166.4 1374.1 166.4C1373.8 166.4 1373.5 166.3 1373.2 166.1C1372.9 165.9 1372.8 165.6 1372.7 165.3L1370.1 154.6L1360.1 152C1359.8 151.9 1359.5 151.7 1359.3 151.5C1359.1 151.2 1359 150.9 1359 150.6C1359 150.3 1359.1 149.9 1359.3 149.7C1359.5 149.4 1359.8 149.2 1360.1 149.1L1370.1 146.1L1372.7 135.7C1372.8 135.4 1373 135.1 1373.2 134.9C1373.5 134.7 1373.8 134.6 1374.1 134.6C1374.4 134.6 1374.7 134.7 1375 134.9C1375.3 135.1 1375.4 135.4 1375.5 135.7L1378.3 146.1L1388.2 149.1C1388.5 149.2 1388.8 149.4 1389 149.7C1389.2 150 1389.3 150.3 1389.3 150.6C1389.3 150.9 1389.2 151.3 1389 151.5C1388.8 151.8 1388.5 152 1388.2 152L1378.3 154.5Z" fill="#162A42"></path><path d="M16.3 44.9L13.5 55.7C13.4 56 13.2 56.3 13 56.5C12.7 56.7 12.4 56.8 12.1 56.8C11.8 56.8 11.5 56.7 11.2 56.5C10.9 56.3 10.8 56 10.7 55.7L8.10001 45L-1.89999 42.4C-2.19999 42.3 -2.50001 42.1 -2.70001 41.9C-2.90001 41.6 -3 41.3 -3 41C-3 40.7 -2.90001 40.3 -2.70001 40.1C-2.50001 39.8 -2.19999 39.6 -1.89999 39.5L8.10001 36.5L10.7 26.1C10.8 25.8 11 25.5 11.2 25.3C11.5 25.1 11.8 25 12.1 25C12.4 25 12.7 25.1 13 25.3C13.3 25.5 13.4 25.8 13.5 26.1L16.3 36.5L26.2 39.5C26.5 39.6 26.8 39.8 27 40.1C27.2 40.4 27.3 40.7 27.3 41C27.3 41.3 27.2 41.7 27 41.9C26.8 42.2 26.5 42.4 26.2 42.4L16.3 44.9Z" fill="#102237"></path><path d="M95.3 343.9L92.5 354.7C92.4 355 92.2 355.3 92 355.5C91.7 355.7 91.4 355.8 91.1 355.8C90.8 355.8 90.5 355.7 90.2 355.5C89.9 355.3 89.8 355 89.7 354.7L87.1 344L77.1 341.4C76.8 341.3 76.5 341.1 76.3 340.9C76.1 340.6 76 340.3 76 340C76 339.7 76.1 339.3 76.3 339.1C76.5 338.8 76.8 338.6 77.1 338.5L87.1 335.5L89.7 325.1C89.8 324.8 90 324.5 90.2 324.3C90.5 324.1 90.8 324 91.1 324C91.4 324 91.7 324.1 92 324.3C92.3 324.5 92.4 324.8 92.5 325.1L95.3 335.5L105.2 338.5C105.5 338.6 105.8 338.8 106 339.1C106.2 339.4 106.3 339.7 106.3 340C106.3 340.3 106.2 340.7 106 340.9C105.8 341.2 105.5 341.4 105.2 341.4L95.3 343.9Z" fill="#102237"></path><path d="M1109.4 58.2002C1110.3 57.9002 1110.4 58.0002 1110.2 59.2002C1110.1 59.9002 1110.2 60.4002 1110.4 60.3002C1110.6 60.2002 1110.9 60.4002 1111.1 60.9002C1111.5 61.9002 1112.3 62.8002 1112.9 62.8002C1113.2 62.8002 1113.4 63.0002 1113.4 63.2002C1113.4 63.4002 1113.7 63.6002 1114.2 63.6002C1114.6 63.6002 1115.2 64.0002 1115.6 64.5002C1115.9 65.0002 1116.6 65.4002 1117 65.4002C1117.4 65.4002 1117.8 65.6002 1117.8 65.8002C1117.8 66.0002 1118.4 66.2002 1119.1 66.2002C1119.8 66.2002 1120.4 66.4002 1120.4 66.6002C1120.4 66.8002 1121.7 67.0002 1123.4 67.0002C1125.6 67.0002 1126.4 67.1002 1126.3 67.5002C1126.2 67.8002 1126.4 67.6002 1126.6 67.1002C1126.8 66.6002 1127.2 66.1002 1127.4 66.1002C1127.6 66.1002 1127.7 65.7002 1127.7 65.2002C1127.7 64.7002 1127.5 64.3002 1127.3 64.3002C1126.7 64.3002 1126.8 63.5002 1127.4 63.3002C1127.7 63.2002 1127.4 63.2002 1126.7 63.3002C1125.7 63.5002 1125.2 63.2002 1124.4 62.2002C1123.8 61.5002 1122.9 60.9002 1122.4 60.9002C1121.7 60.9002 1121.6 60.8002 1122 60.3002C1122.4 59.8002 1122.3 59.7002 1121.4 59.9002C1120.7 60.0002 1120.3 59.9002 1120.3 59.6002C1120.3 59.3002 1119.7 58.5002 1119 57.9002C1118.3 57.3002 1117.7 56.4002 1117.7 56.0002C1117.7 55.6002 1117.5 55.3002 1117.2 55.3002C1116.9 55.3002 1116.8 55.0002 1117 54.7002C1117.2 54.3002 1117 54.2002 1116.5 54.3002C1115.9 54.5002 1115.9 54.3002 1116 53.4002C1116.1 52.7002 1116.1 52.3002 1115.7 52.4002C1115.2 52.6002 1114.1 51.7002 1114.1 51.1002C1114.1 50.9002 1113.2 50.7002 1112 50.7002C1110.9 50.7002 1110.2 50.7002 1110.5 50.8002C1110.8 50.9002 1111 51.2002 1111 51.4002C1111 51.6002 1110.7 51.7002 1110.4 51.6002C1110 51.4002 1109.9 51.6002 1110 52.1002C1110.2 52.6002 1110.1 52.7002 1109.7 52.6002C1109.2 52.4002 1109.1 52.9002 1109.2 55.0002C1109.3 56.8002 1109.2 57.7002 1108.8 58.0002C1108.6 58.4002 1108.7 58.4002 1109.4 58.2002Z" fill="#102237"></path><path d="M1084.4 75.7002C1084.6 75.5002 1084.9 75.4002 1085.2 75.6002C1085.5 75.8002 1085.8 75.6002 1085.9 75.2002C1086 74.8002 1086.5 74.5002 1086.9 74.5002C1087.3 74.5002 1087.9 74.1002 1088.2 73.6002C1088.5 73.1002 1089.1 72.7002 1089.4 72.7002C1090.1 72.7002 1091.2 71.6002 1091.2 71.0002C1091.2 70.3002 1092.3 69.3002 1093.2 69.3002C1093.8 69.3002 1093.9 69.1002 1093.7 68.2002C1093.4 67.1002 1093.8 66.8002 1094.7 67.6002C1095.1 67.9002 1095.1 67.9002 1094.8 67.5002C1094 66.6002 1094.3 64.7002 1095.2 64.4002C1095.7 64.3002 1096.1 63.9002 1096.1 63.6002C1096.1 63.2002 1096 63.2002 1095.7 63.7002C1095.4 64.2002 1095.3 63.8002 1095.3 62.3002C1095.3 61.2002 1095.1 60.2002 1094.9 60.2002C1094.7 60.2002 1094.5 59.8002 1094.5 59.3002C1094.5 57.9002 1093.4 57.2002 1091.5 57.2002C1090 57.2002 1089.7 57.3002 1089.7 58.1002C1089.7 58.6002 1089.5 59.0002 1089.3 59.0002C1089.1 59.0002 1088.9 59.5002 1088.9 60.1002C1088.9 60.7002 1088.7 61.2002 1088.5 61.2002C1088.3 61.2002 1088.1 61.8002 1088.1 62.5002C1088.1 63.2002 1087.9 63.8002 1087.7 63.8002C1087.5 63.8002 1087.3 64.4002 1087.3 65.1002C1087.3 65.8002 1087.1 66.4002 1086.9 66.4002C1086.7 66.4002 1086.5 66.7002 1086.5 67.1002C1086.5 68.1002 1085.4 69.0002 1084.4 69.0002C1083.9 69.0002 1083.5 69.2002 1083.5 69.5002C1083.5 69.8002 1083.7 69.8002 1083.9 69.7002C1084.1 69.6002 1084.3 69.6002 1084.3 69.9002C1084.3 70.2002 1084.1 70.4002 1083.9 70.4002C1083.7 70.4002 1083.5 70.7002 1083.5 71.1002C1083.5 71.5002 1082.9 72.3002 1082.2 73.0002C1080.9 74.2002 1080.5 75.6002 1081.4 75.6002C1081.7 75.6002 1081.7 75.8002 1081.6 76.0002C1081.5 76.2002 1081.1 76.3002 1080.8 76.1002C1080.5 75.9002 1080.4 76.0002 1080.6 76.2002C1080.6 76.5002 1084.1 76.2002 1084.4 75.7002Z" fill="#102237"></path><path d="M920.9 360.4C920.9 360.6 921.3 360.8 921.7 360.8C922.2 360.8 922.6 361 922.7 361.3C922.8 361.6 923.5 361.8 924.2 361.7C925.2 361.6 925.6 361.8 925.6 362.3C925.6 362.7 925.8 363 926 363C926.3 363 926.4 366.1 926.4 371.3C926.4 376.3 926.6 379.7 926.8 379.9C927.3 380.2 927.4 383.1 927.1 384.6H1317.1C1316.9 384.3 1316.8 383.6 1316.8 382.8C1316.8 381.7 1316.6 380.9 1316.4 380.9C1316.2 380.9 1316 380.3 1316 379.6C1316 378.9 1315.8 378.3 1315.6 378.3C1315.4 378.3 1315.2 377.7 1315.2 377C1315.2 376.3 1315 375.7 1314.8 375.7C1314.6 375.7 1314.4 375.3 1314.4 374.8C1314.4 374.3 1314.2 373.9 1314 373.9C1313.8 373.9 1313.6 373.2 1313.6 372.4C1313.6 371.6 1313.4 370.9 1313.2 370.9C1313 370.9 1312.8 370.5 1312.8 370C1312.8 369.5 1312.6 369.1 1312.4 369.1C1312.2 369.1 1312 368.7 1312 368.2C1312 367.7 1311.8 367.3 1311.6 367.3C1311.4 367.3 1311.2 366.7 1311.2 366C1311.2 365.3 1311 364.7 1310.7 364.7C1310.4 364.7 1310.3 364.3 1310.5 363.8C1310.8 362.6 1310.4 361.7 1309.7 361.7C1309.4 361.7 1309.1 361.3 1309.1 360.8C1309.1 360.3 1308.9 359.9 1308.7 359.9C1308.5 359.9 1308.3 358.9 1308.3 357.7C1308.3 356.2 1308.5 355.5 1308.9 355.5C1309.3 355.5 1309.4 355 1309.3 354C1309.1 352.7 1309.3 352.5 1310 352.5C1311 352.5 1311.6 351.8 1310.9 351.4C1310.3 351 1310.3 349 1310.9 349C1311.1 349 1311.3 348.7 1311.3 348.4C1311.3 348.1 1311.6 347.7 1312.1 347.6C1312.8 347.4 1312.8 347.4 1312.1 347.4C1311.2 347.3 1311 344.9 1311.8 344.7C1312.1 344.6 1312.3 342.9 1312.2 340.1C1312.2 336.7 1312.3 335.7 1312.7 336C1313.1 336.2 1313 336.1 1312.6 335.6C1312.1 335 1312.1 334.7 1312.5 334.2C1312.9 333.8 1312.9 333.6 1312.6 333.6C1312.3 333.6 1312.1 333 1312.1 332.3C1312.1 331.6 1311.9 331 1311.7 331C1311.5 331 1311.3 329.9 1311.3 328.6C1311.3 325.6 1310.5 322.8 1309.7 322.8C1309.3 322.8 1309.1 322.5 1309.3 321.9C1309.4 321.4 1309.3 320.8 1308.9 320.4C1308.6 320.1 1308.3 319.5 1308.3 319.1C1308.3 318.7 1308.1 318.4 1307.9 318.4C1307.7 318.4 1307.5 317.7 1307.5 316.9C1307.5 316.1 1307.3 315.4 1307 315.4C1306.7 315.4 1306.6 315 1306.7 314.5C1306.8 314 1306.7 313.6 1306.5 313.6C1305.8 313.6 1304.8 312.4 1304.8 311.7C1304.8 311.3 1304.6 311 1304.4 311C1304.2 311 1304 310.7 1304 310.2C1304 309.8 1303.6 309.2 1303.1 308.8C1302.6 308.5 1302.2 307.8 1302.2 307.4C1302.2 306.5 1300.4 304.5 1299.6 304.5C1299.3 304.5 1299.2 304.1 1299.3 303.6C1299.4 303 1299.3 302.7 1298.9 302.7C1298.6 302.7 1298.3 302.4 1298.3 302C1298.3 301.6 1298.2 301.4 1298 301.5C1297.9 301.6 1297.3 301.3 1296.7 300.7C1295.7 299.7 1295.3 298.9 1296 299.4C1296.2 299.5 1296.6 299.3 1297 298.9C1297.5 298.3 1297.5 298.2 1296.6 298.5C1295.9 298.7 1295.7 298.7 1295.9 298.4C1296.1 298.1 1295.9 298 1295.5 298.2C1295.1 298.4 1294.8 298.2 1294.8 297.7C1294.8 297.3 1294.6 297.1 1294.4 297.2C1294.2 297.3 1293.9 296.9 1293.8 296.2C1293.6 295.2 1293.4 295 1292.5 295.2C1291.9 295.3 1291.4 295.2 1291.4 294.9C1291.4 294.6 1291.2 294.4 1290.9 294.4C1290.6 294.4 1290 293.9 1289.5 293.3C1289.1 292.7 1288.5 292.3 1288.3 292.5C1288.1 292.6 1287.5 292.3 1287.1 291.8C1286.7 291.3 1286 290.9 1285.7 290.9C1285.4 290.9 1284.8 290.5 1284.5 290C1284.2 289.5 1283.5 289.1 1283.1 289.1C1282.5 289.1 1282.4 289 1282.7 288.5C1283.1 288.1 1282.9 288 1281.7 288.1C1280.5 288.2 1280.2 288.1 1280.2 287.6C1280.2 287.2 1279.8 286.9 1279.3 286.9C1278.7 286.9 1278.5 286.7 1278.6 286.3C1278.8 285.9 1278.6 285.8 1278.2 285.9C1277.8 286 1277.6 285.9 1277.6 285.6C1277.6 285.1 1277.5 285.1 1277.2 285.6C1276.9 286.1 1276.8 286.1 1276.6 285.5C1276.4 285.1 1276 284.9 1275.2 285.1C1274.4 285.2 1274.1 285.1 1274.1 284.7C1274.1 284.3 1273.7 284.1 1272.6 284.3C1271.7 284.4 1271.1 284.3 1271.1 284C1271.1 283.7 1270.5 283.5 1269.8 283.5C1269.1 283.5 1268.5 283.3 1268.5 283.1C1268.5 282.9 1267.9 282.7 1267.2 282.7C1266.3 282.7 1265.9 282.5 1266.1 282.2C1266.3 281.8 1265.7 281.7 1263.8 281.8C1262.4 281.9 1261.3 281.7 1261.3 281.5C1261.3 281.3 1260.1 281.1 1258.7 281.1C1257.3 281.1 1256.1 280.9 1256.1 280.7C1256.1 280.5 1254.9 280.3 1253.5 280.3C1250.5 280.3 1249.6 279.7 1249.8 278C1249.9 277.4 1249.8 277 1249.5 277.1C1249 277.4 1247.7 276.1 1248 275.6C1248.2 275.4 1248 275.3 1247.6 275.4C1247.2 275.6 1246.9 275.4 1246.9 275C1246.9 274.3 1244.3 271.3 1243.7 271.3C1243.2 271.3 1241.2 269.3 1241.2 268.7C1241.2 268.5 1240.8 268.2 1240.3 268.2C1239.8 268.2 1239.4 268 1239.4 267.8C1239.4 267.6 1239.1 267.4 1238.6 267.4C1238.1 267.4 1237.5 266.9 1237 266.3C1236.6 265.7 1235.9 265.4 1235.6 265.5C1235.2 265.6 1235 265.5 1235 265.1C1235 264.7 1234.7 264.5 1234.2 264.7C1232.2 265.2 1232 264.2 1232 254.3C1232 248.4 1231.8 245 1231.6 245C1231.4 245 1231.2 243.6 1231.2 241.8C1231.2 239.9 1231 238.6 1230.8 238.6C1230.6 238.6 1230.4 238.3 1230.4 237.9C1230.4 237.5 1230.6 237.3 1231 237.4C1231.3 237.5 1231.8 237.5 1231.9 237.2C1232 237 1231.8 236.8 1231.3 236.8C1230.6 236.8 1230.4 236.5 1230.4 235.5C1230.4 234.8 1230.2 234.2 1229.9 234.2C1229.6 234.2 1229.5 233.5 1229.6 232.3C1229.7 230.9 1229.6 230.4 1229.2 230.4C1228.8 230.4 1228.7 229.7 1228.7 228.2C1228.7 227 1228.5 226 1228.3 226C1228.1 226 1227.9 225.6 1227.9 225.1C1227.9 224.5 1228.1 224.3 1228.4 224.5C1228.7 224.7 1228.5 224.4 1227.9 223.9C1227.1 223.2 1226.9 222.6 1227 221.5C1227.1 220.7 1227 219.8 1226.7 219.7C1226.5 219.5 1226.5 219.6 1226.6 219.9C1226.8 220.2 1226.7 220.4 1226.5 220.4C1226.2 220.4 1226 219.6 1226 218.7C1226 217.8 1225.8 216.9 1225.6 216.7C1225.1 216.4 1225.1 212.6 1225.6 212.6C1225.8 212.6 1226 212.2 1226 211.6C1226 211.1 1226.4 210.3 1226.9 210C1227.4 209.7 1227.8 209 1227.8 208.6C1227.8 208.2 1228 207.9 1228.2 208.1C1228.4 208.2 1228.5 208.6 1228.3 208.8C1228.1 209.1 1228.2 209.2 1228.4 209C1228.6 208.9 1228.7 208.1 1228.6 207.4C1228.5 206.6 1228.6 206.1 1228.9 206.1C1229.2 206.1 1229.4 205.7 1229.4 205.1C1229.4 204.3 1229.5 204.3 1229.8 204.8C1230.1 205.3 1230.2 205.1 1230.2 204C1230.2 203.2 1230.4 202.6 1230.6 202.6C1230.8 202.6 1231 202.1 1231 201.5C1231 200.9 1231.2 200.4 1231.4 200.4C1231.6 200.4 1231.8 200 1231.8 199.5C1231.8 199 1232 198.6 1232.2 198.6C1232.4 198.6 1232.6 198.2 1232.6 197.7C1232.6 197.2 1232.8 196.8 1233 196.8C1233.2 196.8 1233.4 196.2 1233.4 195.5C1233.4 194.6 1233.6 194.2 1234 194.2C1234.4 194.2 1234.6 193.8 1234.6 193.4C1234.6 193 1234.8 192.4 1235.1 192C1235.5 191.5 1235.5 191.5 1235.1 191.7C1234.8 191.9 1234.6 191.8 1234.6 191.5C1234.6 191.2 1235 191 1235.6 191C1236.1 191 1236.3 190.9 1236 190.7C1235.7 190.6 1235.5 190.2 1235.5 189.8C1235.5 189.4 1235.7 189.3 1235.9 189.4C1236.4 189.7 1236.5 188.9 1236.3 186.9C1236.2 185.9 1236.4 185.7 1236.9 185.9C1237.4 186.1 1237.5 186 1237.3 185.5C1237.1 185 1237.4 184.9 1238.4 184.9C1239.4 184.9 1239.7 185.1 1239.7 185.6C1239.7 186 1240.1 186.7 1240.6 187.1C1241.2 187.6 1241.4 188.2 1241.3 188.8C1241.2 189.3 1241.3 189.8 1241.6 189.9C1241.9 190 1242.2 190.7 1242.1 191.4C1242.1 192.1 1242.3 192.9 1242.6 193C1243 193.2 1243.1 194.4 1243 196.7C1243 198.6 1242.9 201.3 1243 202.8L1243.1 205.5L1244.6 204C1245.4 203.2 1246.1 202.2 1246.1 201.8C1246.1 201.4 1246.3 201.1 1246.5 201.1C1246.7 201.1 1246.9 200.9 1246.9 200.6C1246.9 199.6 1247.9 199 1248.5 199.7C1248.9 200.3 1249 200.1 1248.8 198.7C1248.6 197.1 1248.6 197 1249.5 197.3C1250.3 197.5 1250.4 197.4 1249.9 196.9C1249.5 196.5 1249.5 196.3 1249.9 196.3C1250.2 196.3 1250.4 196 1250.4 195.6C1250.4 194.8 1251.2 194 1252.2 193.6C1252.7 193.4 1252.8 193.1 1252.7 192.7C1252.5 192.3 1252.7 192 1253.1 192C1253.6 192 1253.7 191.7 1253.5 190.8C1253.3 189.9 1253.4 189.7 1253.9 189.9C1254.4 190.1 1254.5 189.9 1254.4 189.1C1254.3 188.5 1254.5 188.1 1254.7 188.1C1254.9 188.1 1255.1 187.7 1255.1 187.2C1255.1 186.7 1255.3 186.3 1255.5 186.3C1255.7 186.3 1255.9 185.9 1255.9 185.4C1255.9 184.9 1256.2 184.5 1256.5 184.5C1257 184.5 1257.1 184.1 1256.9 183C1256.7 182 1256.8 181.5 1257.1 181.5C1257.4 181.5 1257.6 180.8 1257.6 179.8C1257.6 178.8 1257.8 178.1 1258 178.1C1258.2 178.1 1258.4 176.9 1258.4 175.5C1258.4 173.1 1258.6 172.7 1259.7 172.8C1260.2 172.8 1259.5 169.3 1259 169.1C1258.5 168.9 1258.4 167.7 1258.4 163.5C1258.4 160.2 1258.2 158.1 1258 158.1C1257.8 158.1 1257.6 157 1257.6 155.7C1257.6 154.3 1257.4 153.3 1257.1 153.3C1256.8 153.3 1256.7 152.6 1256.8 151.6C1256.9 150.4 1256.8 149.9 1256.4 149.9C1256 149.9 1255.9 149.4 1255.9 148.4C1256 147.5 1255.8 146.7 1255.4 146.5C1255 146.3 1254.9 145.6 1255 144.6C1255.1 143.5 1255 143.1 1254.6 143.3C1254.2 143.4 1254 143.1 1254 142C1254 141.2 1253.8 140.3 1253.6 140.2C1253.4 140.1 1253.2 139.6 1253.2 139.1C1253.2 138.6 1253 138.3 1252.7 138.3C1252.3 138.3 1252.4 138.2 1252.8 137.9C1253.6 137.4 1253.3 137.4 1250.7 137.5C1249.6 137.5 1248.7 137.4 1248.5 137.1C1248.3 136.8 1247.2 136.6 1245.8 136.6C1243.7 136.6 1243.4 136.5 1243.4 135.8C1243.4 135.3 1243.2 135.1 1242.8 135.2C1242.5 135.3 1242.2 135.1 1242.2 134.5C1242.2 134 1242.4 133.6 1242.7 133.6C1243 133.6 1243.4 133.4 1243.5 133.1C1243.7 132.5 1244.9 133.3 1244.9 134.2C1244.9 134.5 1245.2 134.8 1245.5 134.9C1246.1 135.1 1246.1 135 1245.5 134.6C1245.1 134.3 1245 134.1 1245.3 134.1C1245.5 134.1 1245.5 133.9 1245.2 133.6C1244.9 133.3 1244.8 132.8 1244.9 132.5C1245.2 131.8 1246.6 131.7 1246.9 132.4C1247 132.7 1247 132.5 1246.9 132C1246.7 131.2 1246.8 131 1247.6 131C1248.1 131 1248.5 130.8 1248.5 130.5C1248.5 130.2 1248.9 130.1 1249.6 130.2C1250.2 130.3 1250.6 130.2 1250.4 130C1250.1 129.4 1251.3 128.3 1252.4 128.3C1252.9 128.3 1253.3 128.1 1253.3 127.9C1253.3 127.7 1253.6 127.5 1254 127.5C1254.6 127.5 1254.6 127.6 1254.2 128.1C1253.8 128.6 1253.9 128.7 1254.6 128.5C1255.3 128.3 1255.4 128 1255.2 127.4C1255 126.7 1255.1 126.6 1255.6 126.8C1256 127 1256.2 126.9 1256.1 126.5C1256 126.1 1256.3 125.8 1257 125.7C1257.9 125.5 1258 125.6 1257.6 126.1C1257.3 126.4 1257.2 126.8 1257.3 126.9C1257.4 127 1257.8 126.7 1258 126.3C1258.3 125.7 1258.3 125.3 1258 125.2C1257.3 124.8 1258.8 123.6 1259.7 123.8C1260.2 123.9 1260.7 123.8 1260.8 123.6C1261 123.3 1260.9 123.3 1260.6 123.4C1260.3 123.6 1260.1 123.6 1260.1 123.4C1260.1 123.1 1261.3 121.9 1261.6 121.9C1262.2 121.9 1266.6 117.1 1266.6 116.5C1266.6 116.1 1266.8 115.8 1267 115.8C1267.2 115.8 1267.4 115.5 1267.4 115.2C1267.4 114.8 1267.6 114.6 1267.8 114.6C1268 114.6 1268.2 114.2 1268.2 113.7C1268.2 113.2 1268.4 112.8 1268.6 112.8C1268.8 112.8 1269 112 1269 111.1C1269 110.2 1269.2 109.4 1269.4 109.4C1269.6 109.4 1269.8 109.1 1269.8 108.7C1269.8 108.3 1270.2 107.7 1270.7 107.3C1271.3 106.8 1271.5 106.4 1271.1 106.2C1270.8 106 1270.6 106.2 1270.6 106.6C1270.6 107 1270.4 107.3 1270.1 107.3C1269.8 107.3 1269.7 105.3 1269.8 101.5C1269.9 97.0004 1269.8 95.7004 1269.4 95.7004C1269.1 95.7004 1268.9 95.2004 1268.9 94.4004C1268.9 93.7004 1268.7 93.1004 1268.5 93.1004C1268.3 93.1004 1268.1 92.7004 1268.1 92.2004C1268.1 91.7004 1267.9 91.3004 1267.7 91.3004C1267.5 91.3004 1267.3 90.7004 1267.3 90.0004C1267.3 89.3004 1267.1 88.7004 1266.8 88.7004C1266.5 88.7004 1266.4 88.3004 1266.5 87.6004C1266.6 87.0004 1266.5 86.3004 1266.3 86.0004C1266 85.5004 1265.9 85.5004 1265.9 86.0004C1265.9 86.3004 1265.4 86.1004 1264.8 85.5004C1264.2 84.9004 1263.7 84.1004 1263.7 83.8004C1263.7 83.5004 1263.5 83.1004 1263.2 83.1004C1262.9 83.1004 1262.8 82.8004 1263 82.5004C1263.2 82.1004 1263 82.0004 1262.6 82.1004C1261.8 82.4004 1261.8 81.6004 1262.5 81.2004C1262.8 81.1004 1262.5 81.1004 1261.8 81.2004C1260.8 81.4004 1260.6 81.3004 1260.8 80.8004C1261 80.3004 1260.9 80.2004 1260.4 80.3004C1259.7 80.6004 1259.6 80.0004 1260.2 79.3004C1260.5 79.0004 1260.5 78.7004 1260.2 78.2004C1259.8 77.7004 1259.8 77.7004 1259.9 78.4004C1260 78.9004 1259.8 79.3004 1259.5 79.4004C1259.2 79.5004 1259 79.4004 1259 79.1004C1259 78.4004 1257 76.5004 1256.2 76.5004C1255.7 76.5004 1255.5 76.2004 1255.7 75.7004C1255.9 75.1004 1255.6 74.9004 1254.6 74.8004C1253.9 74.7004 1253 74.3004 1252.6 73.8004C1252.2 73.3004 1251.4 72.9004 1250.9 72.9004C1250.4 72.9004 1250 72.7004 1250 72.5004C1250 72.3004 1249.6 72.1004 1249.1 72.1004C1248.6 72.1004 1248.2 71.9004 1248.2 71.7004C1248.2 71.5004 1247.8 71.3004 1247.3 71.3004C1246.5 71.3004 1246.5 71.2004 1246.9 70.6004C1247.4 70.0004 1247.2 70.0004 1245.7 70.2004C1244.2 70.4004 1243.9 70.4004 1243.7 69.5004C1243.5 68.8004 1243.2 68.6004 1242.7 68.8004C1242.3 69.0004 1241.8 68.8004 1241.6 68.5004C1241.3 68.1004 1241.2 68.1004 1241.2 68.5004C1241.2 69.1004 1239.2 69.2004 1239 68.6004C1238.8 67.9004 1228.7 67.9004 1228.3 68.6004C1228.1 68.9004 1227.4 69.1004 1226.7 69.0004C1224.7 68.9004 1224.4 69.0004 1224.4 69.7004C1224.4 70.1004 1224 70.3004 1223.5 70.3004C1223 70.3004 1222.6 70.5004 1222.6 70.7004C1222.6 70.9004 1222.2 71.1004 1221.7 71.1004C1221.2 71.1004 1220.8 71.3004 1220.8 71.6004C1220.8 71.9004 1220.5 72.0004 1220.1 71.8004C1219.7 71.7004 1219.3 71.8004 1219.2 72.2004C1219.1 72.6004 1218.7 72.8004 1218.3 72.8004C1217.9 72.8004 1217.1 73.4004 1216.4 74.1004C1215.7 74.8004 1214.8 75.4004 1214.4 75.4004C1214 75.4004 1213.3 75.8004 1213 76.2004C1212.7 76.7004 1212.2 76.9004 1212 76.8004C1211.8 76.7004 1211.6 76.9004 1211.6 77.3004C1211.6 77.7004 1211.4 78.0004 1211.2 78.0004C1211 78.0004 1210.8 78.2004 1210.8 78.6004C1210.8 78.9004 1210.4 79.4004 1209.9 79.8004C1209.4 80.1004 1209 80.7004 1209 81.0004C1209 81.7004 1207.1 83.7004 1206.4 83.7004C1206.1 83.7004 1206.1 83.9004 1206.2 84.2004C1206.4 84.5004 1206.2 84.6004 1205.6 84.5004C1204.9 84.3004 1204.8 84.4004 1204.9 85.1004C1205.1 85.9004 1204 87.4004 1203.6 86.9004C1203.5 86.8004 1203.3 87.2004 1203.3 88.0004C1203.3 88.8004 1203.1 89.4004 1202.9 89.4004C1202.7 89.4004 1202.5 89.8004 1202.5 90.3004C1202.5 91.0004 1202.3 91.1004 1201.6 90.9004C1201.1 90.7004 1200.7 90.8004 1200.7 91.1004C1200.7 91.4004 1200.9 91.5004 1201.1 91.3004C1201.3 91.2004 1201.5 91.5004 1201.5 92.0004C1201.5 92.6004 1201.3 92.9004 1200.9 92.7004C1200.5 92.5004 1200.4 92.8004 1200.5 93.5004C1200.7 94.4004 1200.5 94.5004 1199.4 94.5004C1198.7 94.5004 1198.1 94.3004 1198.1 94.1004C1198.1 93.9004 1197.7 93.7004 1197.2 93.7004C1196.6 93.7004 1196.3 93.4004 1196.3 92.8004C1196.3 92.2004 1196 91.9004 1195.2 91.9004C1194.4 91.9004 1194.1 91.7004 1194.1 91.0004C1194.1 90.5004 1194.4 90.1004 1194.7 90.1004C1195 90.1004 1195.3 89.7004 1195.3 89.2004C1195.3 88.7004 1195.6 88.3004 1196 88.3004C1196.4 88.3004 1196.6 88.1004 1196.4 87.9004C1196.2 87.7004 1196.3 87.5004 1196.6 87.5004C1196.9 87.5004 1197.1 87.1004 1197.1 86.6004C1197.1 85.6004 1198.2 84.3004 1198.8 84.6004C1199 84.7004 1199.1 84.4004 1199 83.8004C1198.9 83.2004 1199 82.7004 1199.3 82.7004C1199.6 82.7004 1199.8 82.4004 1199.8 82.0004C1199.8 81.1004 1200.9 80.0004 1201.4 80.4004C1201.6 80.6004 1201.5 80.4004 1201.2 79.9004C1200.8 79.4004 1200.8 79.1004 1201.1 79.1004C1201.4 79.1004 1201.6 78.6004 1201.6 78.0004C1201.6 77.4004 1201.8 76.9004 1202 76.9004C1202.2 76.9004 1202.4 76.3004 1202.4 75.6004C1202.4 74.9004 1202.6 74.3004 1202.8 74.3004C1203 74.3004 1203.2 73.9004 1203.2 73.4004C1203.2 72.9004 1203.4 72.5004 1203.6 72.5004C1203.8 72.5004 1204 71.7004 1204 70.8004C1204 69.6004 1204.2 69.1004 1204.6 69.1004C1205.1 69.1004 1205.2 68.6004 1205.2 67.0004C1205.2 65.9004 1205.4 64.7004 1205.7 64.3004C1206.1 63.8004 1206.1 63.8004 1205.7 64.0004C1205.4 64.2004 1205.2 64.1004 1205.2 63.8004C1205.2 63.5004 1205.4 63.3004 1205.6 63.3004C1205.8 63.3004 1206 62.5004 1206 61.6004C1206 60.7004 1205.8 59.9004 1205.6 59.9004C1205.4 59.9004 1205.2 59.3004 1205.2 58.5004C1205.2 55.5004 1205.1 55.1004 1204.5 55.1004C1204.1 55.1004 1203.9 54.7004 1203.9 54.0004C1203.9 53.4004 1203.5 52.5004 1203 52.1004C1202.5 51.6004 1202.2 51.0004 1202.3 50.6004C1202.5 50.2004 1202.3 49.8004 1201.9 49.7004C1201.5 49.6004 1201.3 49.2004 1201.3 48.8004C1201.3 47.8004 1195.9 42.6004 1194.9 42.6004C1194.4 42.6004 1194 42.4004 1194 42.2004C1194 42.0004 1193.6 41.8004 1193.1 41.8004C1192.5 41.8004 1192.3 41.6004 1192.4 41.1004C1192.6 40.6004 1192.4 40.5004 1191.6 40.7004C1190.8 40.9004 1190.5 40.8004 1190.5 40.3004C1190.5 39.9004 1190.2 39.6004 1189.8 39.6004C1189.2 39.6004 1189.2 39.5004 1189.9 39.0004C1190.6 38.5004 1190.4 38.4004 1187.8 38.6004C1186 38.7004 1184.9 38.6004 1184.9 38.3004C1184.9 38.1004 1184.1 37.9004 1183.2 37.9004C1182.3 37.9004 1181.5 37.7004 1181.5 37.5004C1181.5 37.2004 1180 37.1004 1177.8 37.1004C1174.7 37.1004 1174.2 37.0004 1174.4 36.5004C1174.6 36.1004 1174.4 35.9004 1174 35.9004C1173.6 35.9004 1173.3 36.2004 1173.3 36.5004C1173.3 37.0004 1172.7 37.1004 1170.1 37.1004C1168.2 37.1004 1166.9 37.3004 1166.9 37.5004C1166.9 37.7004 1166.3 37.9004 1165.6 37.9004C1164.9 37.9004 1164.3 38.1004 1164.3 38.3004C1164.3 38.5004 1163.7 38.7004 1163 38.7004C1162.3 38.7004 1161.7 38.9004 1161.7 39.1004C1161.7 39.3004 1161.3 39.5004 1160.8 39.5004C1160.3 39.5004 1159.9 39.7004 1159.9 40.0004C1159.9 40.8004 1158.7 41.7004 1157.8 41.7004C1157.3 41.7004 1156.9 41.9004 1156.9 42.1004C1156.9 42.3004 1156.7 42.5004 1156.4 42.5004C1156.1 42.5004 1156.1 42.3004 1156.2 42.1004C1156.3 41.9004 1156.2 41.7004 1156 41.7004C1155.7 41.7004 1155.6 42.1004 1155.8 42.6004C1156 43.3004 1156 43.5004 1155.4 43.3004C1154.9 43.1004 1154.8 43.2004 1155 43.7004C1155.1 44.0004 1155 44.3004 1154.8 44.3004C1154.6 44.3004 1154.3 44.0004 1154.2 43.5004C1154.1 42.9004 1154 42.9004 1153.8 43.7004C1153.7 44.2004 1153.7 44.6004 1153.9 44.4004C1154.1 44.3004 1154.3 44.4004 1154.3 44.6004C1154.3 44.8004 1154.1 45.1004 1153.9 45.1004C1153.7 45.1004 1153.5 45.5004 1153.5 45.9004C1153.5 46.4004 1153.2 46.8004 1152.5 46.9004C1151.7 47.0004 1151.6 47.3004 1151.7 48.2004C1151.8 48.9004 1151.6 49.4004 1151.4 49.4004C1151.1 49.4004 1150.9 50.1004 1150.9 50.9004C1150.9 51.7004 1150.7 52.4004 1150.5 52.4004C1149.6 52.4004 1149.4 52.3004 1149.5 51.9004C1149.7 51.2004 1148.9 51.5004 1148.6 52.2004C1148.5 52.6004 1148.6 52.8004 1148.9 52.7004C1149.2 52.6004 1149.4 52.9004 1149.3 53.2004C1149.2 53.5004 1149.4 53.6004 1149.6 53.5004C1149.9 53.3004 1150 53.6004 1150 54.2004C1150 54.9004 1149.8 55.1004 1149.2 54.9004C1148.6 54.7004 1148.4 54.9004 1148.6 55.7004C1148.7 56.3004 1148.6 57.0004 1148.3 57.4004C1147.9 57.8004 1147.9 58.0004 1148.2 58.0004C1148.5 58.0004 1148.7 58.7004 1148.7 59.7004C1148.7 60.7004 1148.5 61.4004 1148.3 61.4004C1148.1 61.4004 1147.8 62.3004 1147.8 63.3004C1147.7 64.7004 1147.8 65.1004 1148.2 65.0004C1148.6 64.8004 1148.8 65.3004 1148.7 67.1004C1148.6 70.9004 1148.7 71.4004 1149.4 71.4004C1150.4 71.4004 1150.3 73.9004 1149.3 74.1004C1148.6 74.3004 1148.6 74.3004 1149.3 74.3004C1150.2 74.4004 1150.3 75.0004 1149.5 75.4004C1149.1 75.6004 1149.1 75.6004 1149.5 75.7004C1149.8 75.7004 1150 75.9004 1150 76.1004C1150 76.3004 1145.9 76.5004 1140 76.5004C1133.6 76.5004 1129.9 76.7004 1129.8 77.0004C1129.7 77.2004 1129.5 77.4004 1129.2 77.4004C1129 77.4004 1128.9 77.2004 1129.1 76.9004C1129.4 76.5004 1129.3 76.5004 1128.8 76.9004C1128.4 77.3004 1127 77.4004 1124.9 77.3004C1121.9 77.2004 1121.7 77.2004 1121.9 78.0004C1122.1 78.6004 1121.9 78.8004 1121 78.8004C1120.4 78.8004 1119.9 78.6004 1119.9 78.3004C1119.9 77.9004 1119.8 77.9004 1119.4 78.3004C1119.1 78.6004 1118.5 78.8004 1118.1 78.8004C1117.7 78.8004 1117.3 79.0004 1117.3 79.2004C1117.3 79.4004 1116.3 79.6004 1115.1 79.6004C1113.9 79.6004 1112.9 79.8004 1112.9 80.0004C1112.9 80.2004 1112.5 80.4004 1112 80.4004C1111.4 80.4004 1111.2 80.2004 1111.3 79.8004C1111.5 79.2004 1110.6 79.1004 1110 79.7004C1109.8 79.9004 1109.9 79.9004 1110.2 79.8004C1110.5 79.6004 1110.7 79.7004 1110.7 79.9004C1110.7 80.1004 1110.3 80.4004 1109.8 80.4004C1109.3 80.4004 1108.9 80.6004 1108.9 80.9004C1108.9 81.2004 1108.2 81.3004 1107 81.2004C1105.6 81.1004 1105.2 81.2004 1105.3 81.6004C1105.4 82.0004 1104.9 82.1004 1103.5 82.1004C1102.4 82.1004 1101.5 82.3004 1101.5 82.5004C1101.5 82.7004 1100.9 82.9004 1100.2 82.9004C1099.5 82.9004 1098.9 83.1004 1098.9 83.3004C1098.9 83.5004 1098.3 83.7004 1097.6 83.7004C1096.9 83.7004 1096.3 83.9004 1096.3 84.2004C1096.3 84.5004 1095.7 84.6004 1094.8 84.5004C1094 84.4004 1093.2 84.5004 1093 84.8004C1092.8 85.0004 1092.9 85.0004 1093.2 84.9004C1093.5 84.7004 1093.7 84.8004 1093.7 85.1004C1093.7 85.4004 1093.1 85.5004 1092.3 85.5004C1091.5 85.4004 1090.9 85.6004 1090.8 85.9004C1090.7 86.2004 1089.9 86.4004 1089 86.4004C1088.1 86.4004 1087.2 86.6004 1087.1 86.8004C1086.9 87.0004 1087.1 87.1004 1087.5 87.0004C1087.9 86.9004 1088.2 87.0004 1088.2 87.2004C1088.2 87.5004 1087.8 87.7004 1087.3 87.7004C1086.8 87.7004 1086.4 87.9004 1086.4 88.1004C1086.4 88.3004 1086 88.5004 1085.6 88.5004C1085.1 88.5004 1084.7 88.7004 1084.6 89.0004C1084.4 89.4004 1084.2 89.4004 1083.5 89.0004C1083 88.7004 1082.6 88.6004 1082.6 88.8004C1082.8 89.8004 1082.4 90.2004 1081.3 90.2004C1080.6 90.2004 1079.9 90.4004 1079.8 90.7004C1079.6 91.1004 1079.5 91.1004 1079.1 90.6004C1078.8 90.1004 1078.6 90.1004 1078.6 90.5004C1078.6 90.8004 1078.4 90.9004 1078.2 90.8004C1078 90.6004 1077.9 90.8004 1078 91.2004C1078.2 91.7004 1078 91.9004 1077.3 91.9004C1076.8 91.9004 1076.5 91.7004 1076.6 91.5004C1076.7 91.3004 1076.5 91.1004 1076.2 91.1004C1075.9 91.1004 1075.6 91.3004 1075.6 91.5004C1075.6 91.7004 1075.8 91.9004 1076 91.9004C1076.2 91.9004 1076.4 92.1004 1076.4 92.3004C1076.4 92.5004 1076 92.7004 1075.5 92.7004C1075 92.7004 1074.6 92.9004 1074.6 93.2004C1074.6 93.5004 1074.2 93.6004 1073.8 93.5004C1073.3 93.4004 1072.6 93.8004 1072.1 94.4004C1071.5 95.1004 1070.9 95.3004 1070.4 95.2004C1069.8 95.0004 1069.6 95.2004 1069.8 95.6004C1070 96.0004 1069.7 96.2004 1069.1 96.2004C1068.6 96.2004 1068.2 96.4004 1068.2 96.7004C1068.2 97.4004 1067.1 98.4004 1066.3 98.4004C1065.9 98.4004 1065.6 98.6004 1065.6 98.8004C1065.6 99.4004 1063.5 99.3004 1063.3 98.7004C1063.2 98.3004 1063.1 98.3004 1062.8 98.7004C1062.6 99.0004 1062.7 99.2004 1062.9 99.2004C1063.2 99.2004 1063.2 99.5004 1062.8 100.1C1062.5 100.6 1062 101 1061.6 101C1061.2 101 1060.7 101.4 1060.3 101.9C1060 102.4 1059.3 102.8 1058.9 102.8C1058.5 102.8 1058.1 103 1058.1 103.2C1058.1 103.4 1057.8 103.6 1057.4 103.6C1057 103.6 1056.8 103.7 1056.9 103.9C1057.3 104.3 1056.1 105.4 1055.4 105.3C1054.4 105.2 1053.1 105.4 1053.7 105.6C1054 105.7 1054.2 106 1054.2 106.2C1054.2 106.4 1053.9 106.5 1053.5 106.3C1053 106.1 1052.9 106.2 1053.1 106.5C1053.6 107.3 1050.5 110.2 1049.4 109.9C1048.9 109.8 1048.7 109.9 1048.8 110.1C1048.9 110.3 1048.5 111 1047.9 111.7C1047.1 112.5 1046.7 112.7 1046.5 112.4C1046.4 112.1 1046.1 111.9 1045.8 111.9C1045.5 111.9 1045.5 112.1 1045.8 112.4C1046.4 113 1046.5 113.6 1045.9 113.6C1045.4 113.6 1043.3 115.5 1043.3 116C1043.3 116.5 1040.4 119.2 1040.1 118.9C1040 118.8 1039.8 118.9 1039.8 119.2C1039.8 119.5 1039 120.5 1038.1 121.4C1037.1 122.3 1036.4 123.4 1036.4 123.7C1036.4 124.1 1036.1 124.4 1035.8 124.4C1035.5 124.4 1035.2 124.6 1035.2 124.9C1035.2 125.2 1034.4 126.1 1033.5 127C1032.5 127.9 1031.8 128.9 1031.8 129.1C1031.8 129.8 1029.8 131.7 1029.1 131.6C1028.8 131.5 1028.7 131.5 1028.9 131.6C1029.5 132 1029.2 133.3 1028.4 133.9C1027.9 134.2 1027.5 135 1027.5 135.6C1027.5 136.4 1027.3 136.6 1026.7 136.4C1026.1 136.2 1025.9 136.4 1026.1 136.8C1026.2 137.2 1026.1 137.4 1025.6 137.4C1025.2 137.4 1025 137.6 1025.2 138C1025.5 138.9 1024.2 140.1 1023.3 139.8C1022.7 139.6 1022.7 139.6 1023.1 140.1C1023.9 140.9 1023.8 141.9 1023 141.6C1022.5 141.4 1022.4 141.6 1022.6 142.4C1022.8 143.1 1022.7 143.5 1022.4 143.5C1022.1 143.5 1021.9 144 1021.9 144.6C1021.9 145.2 1021.7 145.7 1021.5 145.7C1021.3 145.7 1021.1 146 1021.1 146.5C1021.1 146.9 1020.7 147.5 1020.2 147.9C1019.7 148.2 1019.3 148.9 1019.3 149.3C1019.3 149.7 1019.1 150.1 1018.9 150.1C1018.7 150.1 1018.5 150.7 1018.5 151.4C1018.5 152.3 1018.3 152.7 1017.9 152.7C1017.5 152.7 1017.3 153.1 1017.3 153.8C1017.3 154.4 1017.1 154.9 1016.9 154.9C1016.7 154.9 1016.5 155.3 1016.5 155.7C1016.5 156.2 1016.3 156.6 1016 156.7C1015.6 156.8 1015.5 157.8 1015.6 159.8C1015.7 161.4 1015.6 162.6 1015.4 162.5C1015.2 162.4 1015.1 162.7 1015.1 163.3C1015.1 163.9 1015.2 164.2 1015.4 164.1C1015.6 164 1015.7 165 1015.6 166.3C1015.6 167.6 1015.3 168.7 1015.1 168.7C1014.9 168.7 1014.9 168.9 1015.3 169.1C1015.7 169.3 1015.8 169.7 1015.6 170C1015.4 170.3 1015.6 170.4 1016 170.2C1016.6 170 1016.7 170.4 1016.7 172.8C1016.7 174.4 1016.9 175.7 1017.1 175.7C1017.3 175.7 1017.5 176.4 1017.5 177.2C1017.5 178.4 1017.6 178.6 1018.2 178.4C1018.8 178.2 1018.9 178.3 1018.7 179.1C1018.5 179.7 1018.7 180 1019.1 180C1019.5 180 1019.7 180.5 1019.7 181.5C1019.7 182.3 1019.9 183 1020.1 183C1020.3 183 1020.5 183.2 1020.5 183.5C1020.5 183.8 1020.2 183.9 1019.7 183.7C1019.1 183.5 1019.1 183.5 1019.8 184.1C1020.3 184.5 1020.8 184.7 1021 184.7C1021.2 184.7 1021.4 185.1 1021.4 185.6C1021.4 186.1 1021.6 186.5 1021.9 186.5C1022.2 186.5 1022.3 186.8 1022.1 187.2C1022 187.6 1022.1 188 1022.5 188.1C1022.9 188.2 1023.1 188.7 1023.1 189.2C1023.1 189.6 1023.3 190 1023.5 190C1023.7 190 1023.9 190.5 1023.9 191.1C1023.9 191.7 1024.1 192.2 1024.3 192.2C1024.5 192.2 1024.7 192.5 1024.7 193C1024.7 193.4 1025.1 194 1025.6 194.4C1026.1 194.7 1026.5 195.4 1026.5 195.8C1026.5 196.2 1026.7 196.6 1026.9 196.6C1027.1 196.6 1028 197.3 1028.8 198.1C1029.6 198.9 1030.3 199.8 1030.3 200C1030.3 200.2 1030.5 200.4 1030.7 200.4C1030.9 200.4 1031.1 200.8 1031.1 201.3C1031.1 201.9 1031.4 202.2 1032 202.2C1032.6 202.2 1032.9 202.5 1032.9 203.1C1032.9 203.6 1033.2 204 1033.6 204C1034.4 204 1035.5 205 1035.5 205.7C1035.5 206 1035.8 206.1 1036.1 206C1036.4 205.9 1036.9 206.1 1037.3 206.6C1037.6 207.1 1038.2 207.4 1038.7 207.4C1039.1 207.4 1039.5 207.6 1039.5 207.8C1039.5 208 1039.8 208.2 1040.2 208.2C1042.5 208.2 1043.1 214.3 1040.9 214.9C1040 215.1 1039.9 215.3 1040.5 215.4C1041.4 215.6 1041.5 217.2 1040.6 217.2C1040.2 217.2 1040.1 217.5 1040.2 218.1C1040.4 218.8 1040.3 219 1039.7 218.8C1039.2 218.6 1039.1 218.7 1039.2 219.2C1039.3 219.5 1039.2 219.8 1039 219.8C1038.7 219.8 1038.5 220.1 1038.5 220.5C1038.5 220.9 1038.3 221.1 1038.1 220.9C1037.9 220.8 1037.7 220.9 1037.7 221.3C1037.7 221.7 1037.9 222 1038.1 222C1038.3 222 1038.5 222.6 1038.5 223.3C1038.5 224 1038.7 224.6 1038.9 224.6C1039.1 224.6 1039.3 225 1039.3 225.5C1039.3 226 1039.5 226.4 1039.8 226.4C1040.1 226.4 1040.2 227 1040.1 228C1039.9 229.4 1040 229.5 1040.5 228.8C1040.8 228.3 1041.1 228.2 1041.1 228.6C1041.1 228.9 1041.9 229.9 1042.9 230.8C1044.8 232.6 1045 233.9 1043.6 235.2C1043.1 235.6 1043 236 1043.3 236C1043.6 236 1043.8 236.5 1043.8 237.1C1043.8 237.7 1043.6 238.2 1043.3 238.2C1043 238.2 1043 238 1043.1 237.8C1043.2 237.6 1043.2 237.4 1042.9 237.4C1042.6 237.4 1042.6 238.2 1042.7 239.3C1042.9 240.6 1042.8 241.2 1042.5 241.2C1042.2 241.2 1042 241.6 1042 242.1C1042 242.6 1041.9 243 1041.7 243C1041.3 243 1040.3 245.1 1040.3 246.1C1040.3 247 1039.7 247.8 1038.2 248.5C1037.7 248.8 1037.2 249.3 1037.2 249.5C1037.2 249.9 1037.3 249.8 1037.6 249.4C1037.9 249 1038.1 248.9 1038.3 249.3C1038.5 249.6 1038.2 250.1 1037.7 250.6C1037.2 251 1036.8 251.7 1036.8 252.1C1036.8 252.5 1036.6 252.8 1036.3 252.8C1035.6 252.8 1034.2 254.6 1034.5 255.1C1034.7 255.4 1034.5 255.4 1034.1 255.3C1033.7 255.1 1033.4 255.2 1033.5 255.5C1033.6 255.8 1033.4 256 1033.1 256C1032.8 256 1032.4 256.2 1032.2 256.4C1032 256.6 1032.1 256.7 1032.4 256.5C1032.7 256.3 1032.9 256.4 1032.9 256.6C1032.9 256.8 1032.7 257.1 1032.5 257.1C1032.3 257.1 1032.1 257.4 1032.1 257.9C1032.1 258.5 1032 258.6 1031.7 258C1031.4 257.5 1031.2 257.4 1030.7 258C1030.3 258.4 1030.3 258.5 1030.7 258.3C1031.1 258.1 1031.2 258.3 1031.2 258.9C1031.2 260.1 1027.5 263.8 1026.6 263.5C1026.2 263.4 1026.1 263.4 1026.2 263.7C1026.4 263.9 1026.1 264.5 1025.6 264.9C1024.3 266 1024.5 266.2 1026.2 266.2C1027.6 266.2 1028.4 267.2 1027.3 267.6C1027.1 267.7 1028.5 267.7 1030.6 267.6C1033.2 267.5 1034.5 267.6 1035 268C1035.5 268.4 1035.7 268.4 1036 268C1036.2 267.6 1037.4 267.5 1039.6 267.6C1042.5 267.7 1042.9 267.6 1042.9 267C1042.9 266.4 1043.3 266.2 1045.3 266.2C1046.6 266.2 1047.7 266 1047.7 265.8C1047.7 265.6 1048.5 265.4 1049.4 265.4C1050.3 265.4 1051.1 265.2 1051.1 265C1051.1 264.8 1051.5 264.6 1052 264.6C1052.5 264.6 1052.9 264.4 1052.9 264.2C1052.9 264 1053.6 263.8 1054.4 263.8C1055.9 263.8 1055.9 263.8 1055.9 265.5C1055.9 266.7 1055.7 267.2 1055.3 267.2C1054.9 267.2 1054.7 267.6 1054.7 268.1C1054.7 268.6 1053.6 270.1 1052.1 271.5C1049 274.6 1049 274.5 1051.6 274.5C1052.8 274.5 1053.8 274.7 1053.9 275C1054.1 275.7 1069.1 275.7 1069.3 275C1069.4 274.7 1070.6 274.5 1072.7 274.5C1074.5 274.5 1075.9 274.3 1075.9 274.1C1075.9 273.9 1076.8 273.7 1077.9 273.7C1079 273.7 1080 273.5 1080.2 273.3C1080.4 273.1 1081.5 272.8 1082.7 272.8H1085V275.2C1085 277.5 1085 277.6 1084 277.3C1083.5 277.1 1083.2 277.2 1083.5 277.4C1083.8 277.6 1084 278.5 1084 279.4V281.1L1082.4 280.9C1081.2 280.8 1080.8 280.9 1081 281.3C1081.1 281.7 1080.7 281.8 1079.4 281.8C1078.4 281.8 1077.6 282 1077.6 282.3C1077.6 282.6 1077.1 282.7 1076.3 282.6C1075.4 282.5 1075 282.6 1075 283C1075 283.5 1074.6 283.6 1073.5 283.4C1072.5 283.3 1071.9 283.4 1071.8 283.8C1071.7 284.1 1071.3 284.4 1070.9 284.4C1070.5 284.4 1070.2 284.6 1070.2 284.9C1070.2 285.2 1070 285.2 1069.8 285.1C1069.6 285 1069.4 285.1 1069.4 285.5C1069.4 285.9 1069.2 286.2 1069 286.2C1068.8 286.2 1068.6 286.4 1068.6 286.7C1068.6 287.5 1066.4 289.4 1065.8 289.1C1065.5 289 1065.2 289 1065.2 289.3C1065.2 289.5 1065.4 289.7 1065.6 289.7C1065.8 289.7 1066 289.9 1066 290.2C1066 290.8 1064.9 291.9 1064.3 291.9C1064 291.9 1063.8 292.2 1063.8 292.6C1063.8 293.9 1062.6 294.5 1060.3 294.5C1058.9 294.5 1058 294.6 1057.7 295C1057.2 295.8 1054.4 295.4 1054.6 294.6C1054.7 294.2 1054.4 294.3 1053.8 294.9C1053.3 295.4 1052.9 296.1 1052.9 296.3C1052.9 296.5 1052.4 296.8 1051.8 296.8C1051.2 296.8 1050.7 296.6 1050.7 296.3C1050.7 296 1050.3 296.2 1049.9 296.7C1049.5 297.2 1048.6 297.6 1048 297.6C1047.4 297.6 1046.9 297.8 1046.9 298C1046.9 298.6 1045.3 298.5 1045 297.9C1044.9 297.6 1044.8 297.8 1044.7 298.3C1044.7 299 1044.4 299.3 1043.8 299.3C1043.3 299.3 1042.9 299.5 1042.9 299.7C1042.9 299.9 1042.6 300.1 1042.1 300.1C1041.7 300.1 1041.1 300.5 1040.7 301C1040.3 301.5 1039.8 301.9 1039.4 301.9C1039 301.9 1038.4 302.3 1038.1 302.8C1037.6 303.4 1037.4 303.5 1037.1 303.1C1036.9 302.7 1036.8 302.9 1036.8 303.5C1036.8 304.1 1036.4 304.5 1035.9 304.7C1035.4 304.8 1034.9 305.3 1034.8 305.8C1034.6 306.7 1033.8 307.1 1033.8 306.3C1033.8 306.1 1033.5 305.9 1033.2 305.9C1032.9 305.9 1032.6 306.1 1032.6 306.3C1032.6 306.5 1032.9 306.7 1033.2 306.7C1033.5 306.7 1033.8 306.9 1033.8 307.1C1033.8 307.3 1033.6 307.5 1033.4 307.5C1033.2 307.5 1033 307.8 1033 308.3C1033 308.7 1032.6 309.3 1032.1 309.7C1031.6 310 1031.2 310.7 1031.2 311.1C1031.2 311.5 1031 311.9 1030.8 311.9C1030.6 311.9 1030.4 312.3 1030.4 312.8C1030.4 313.3 1030.2 313.7 1030 313.7C1029.8 313.7 1029.6 314.2 1029.6 314.8C1029.6 315.4 1029.4 315.9 1029.2 315.9C1029 315.9 1028.8 316.3 1028.8 316.8C1028.8 317.4 1028.6 317.6 1028.2 317.5C1027.8 317.3 1027.7 317.6 1027.8 318.3C1027.9 319.1 1027.8 319.3 1027.3 319.3C1026.8 319.3 1026.6 319.7 1026.6 320.6C1026.6 321.3 1026.4 321.9 1026.2 321.9C1026 321.9 1025.8 322.5 1025.8 323.2C1025.8 324.2 1025.6 324.5 1025 324.5C1024.5 324.5 1024.1 324.8 1023.9 325.2C1023.7 325.8 1023.7 325.8 1024.3 325.4C1024.9 324.9 1025 325 1025 326.2C1025 327.5 1024.9 327.5 1023.8 327.3C1022.6 327 1022.6 327 1023.4 327.9C1024.6 329.3 1023.7 331.5 1022.2 330.9C1021.8 330.7 1021.6 330.9 1021.6 331.3C1021.6 331.9 1021.2 332 1019.7 331.8C1018.2 331.6 1017.8 331.7 1017.8 332.2C1017.8 332.6 1017.3 332.8 1016.5 332.8C1015.8 332.8 1015.2 333 1015.2 333.2C1015.2 333.4 1014.8 333.6 1014.3 333.6C1013.8 333.6 1013.4 333.9 1013.4 334.3C1013.4 334.8 1013.1 334.9 1012.5 334.8C1011.9 334.7 1011.6 334.8 1011.6 335.2C1011.6 335.5 1011.3 335.8 1010.9 335.8C1010.4 335.8 1010.3 335.7 1010.7 335.2C1011.1 334.7 1011.1 334.5 1010.6 334.4C1009.7 334.1 1009.4 334.5 1009.7 335.8C1009.9 336.7 1009.8 336.8 1009.5 336.3C1009.1 335.8 1009 335.8 1009 336.7C1009 337.4 1008.8 337.6 1008.3 337.5C1007.9 337.3 1007.7 337.5 1007.7 337.9C1007.7 338.2 1007.4 338.5 1006.9 338.5C1006.5 338.5 1005.9 338.9 1005.5 339.4C1004.7 340.5 1004.1 340.5 1004.5 339.5C1004.7 338.9 1004.6 338.9 1004.3 339.3C1004.1 339.6 1004 340.3 1004.1 340.7C1004.2 341.2 1004 341.8 1003.4 342.3C1002.9 342.7 1002.5 343.3 1002.5 343.5C1002.5 343.7 1002.1 344.2 1001.6 344.5C1001.1 344.8 1000.7 345.4 1000.7 345.7C1000.7 346.4 999.9 347.2 998.8 347.7C998.3 347.9 998.1 348.3 998.2 348.6C998.3 348.9 998.3 349.3 998 349.4C997.7 349.5 997.6 350.1 997.5 350.7C997.4 351.3 997.3 351.8 997.1 351.6C996.9 351.5 996.8 352.2 996.8 353.1C996.8 354 996.6 354.9 996.3 355C996 355.1 995.8 355.9 995.8 356.8C995.8 357.9 995.6 358.4 995.2 358.4C994.4 358.4 993.4 357.3 993.4 356.5C993.4 356.1 993.2 355.8 992.9 355.8C992.6 355.8 992.6 355.6 993 355.1C993.5 354.5 993.4 354.4 992.6 354.2C991.9 354 991.7 353.7 991.7 352.8C991.8 350.7 991.7 349.7 991.3 349.9C990.5 350.4 990.8 335.4 991.6 334.6C992 334.2 992.3 334 992.4 334C992.5 334.1 992.5 334 992.4 333.8C992.3 333.6 992.1 333.5 992 333.6C991.8 333.7 991.7 333.4 991.7 333C991.7 332.2 993.7 330.1 994 330.5C994.1 330.6 994.3 330.3 994.3 329.8C994.3 328.7 996.2 326.5 996.9 326.9C997.1 327 997.2 326.8 997.1 326.3C996.9 325.3 997.9 324.1 998.9 324.1C999.3 324.1 999.5 323.9 999.3 323.5C999.2 323.1 999.3 322.9 999.5 322.9C999.8 322.9 1000 322.6 1000 322.2C1000 321.5 1001 320.3 1001.5 320.3C1001.7 320.3 1001.7 320.6 1001.5 321C1001.3 321.4 1001.4 321.6 1001.7 321.4C1001.9 321.2 1002 320.8 1001.9 320.3C1001.8 319.8 1001.8 319.5 1002.1 319.5C1002.4 319.5 1002.6 319.1 1002.6 318.7C1002.6 318.2 1002.8 317.8 1003.1 317.7C1003.8 317.5 1003.7 303.5 1003 303C1002.7 302.8 1002.6 301.9 1002.7 300.5C1002.9 298.9 1002.8 298.4 1002.4 298.5C1002 298.7 1001.9 298.1 1001.9 296.3C1001.9 295 1001.8 293.7 1001.6 293.6C1001.4 293.4 1001.4 293.5 1001.6 293.8C1001.8 294.1 1001.7 294.3 1001.5 294.3C1000.9 294.3 1000.9 293.1 1001.6 292.9C1001.9 292.8 1001.7 292.6 1001.1 292.4C1000.4 292.2 1000.2 291.9 1000.3 291.3C1000.4 290.9 1000.2 290.2 999.9 289.9C999.6 289.6 999.3 289 999.3 288.6C999.3 288.2 999 287.9 998.7 287.9C998.3 287.9 998.1 287.5 998.1 286.8C998.1 286.2 997.9 285.7 997.7 285.7C997.5 285.7 997.3 285.3 997.3 284.8C997.3 284.3 997.1 283.9 996.9 283.9C996.7 283.9 996.5 283.5 996.5 283C996.5 282.5 996.3 282.1 996 282.1C995.7 282.1 995.6 281.6 995.8 280.7C995.9 279.9 995.9 279.5 995.8 279.8C995.2 281.2 995 279.8 994.9 274.1C994.9 270.6 995 267.8 995.2 267.8C995.4 267.8 995.6 267.2 995.6 266.5C995.6 265.6 995.8 265.3 996.1 265.5C996.4 265.7 996.4 265.5 996 265C995.5 264.4 995.5 264.2 995.9 264C996.2 263.9 996.4 263.2 996.4 262.6C996.4 261.9 996.6 261.3 996.8 261.3C997 261.3 997.2 260.9 997.2 260.5C997.2 260 997.5 259.6 997.8 259.4C998.2 259.3 998.3 258.9 998.2 258.5C998 258.1 998.2 257.8 998.6 257.8C999.1 257.8 999.3 257.4 999.3 256.7C999.3 256.1 999.5 255.7 999.7 255.9C999.9 256.1 1000.1 255.7 1000.1 255.1C1000.1 254.5 1000.3 254 1000.5 254C1000.7 254 1000.9 253.6 1000.9 253.1C1000.9 252.6 1001.1 252.2 1001.3 252.2C1001.5 252.2 1001.7 251.9 1001.7 251.5C1001.7 250.7 1003.7 248.6 1004.2 248.9C1004.4 249 1004.5 248.5 1004.4 247.8C1004.3 247.1 1004.4 246.5 1004.7 246.5C1004.9 246.5 1005.1 246.2 1005.1 245.8C1005.1 244.9 1006.2 243.8 1007.2 243.8C1007.7 243.8 1007.9 243.6 1007.8 243.4C1007.7 243.2 1007.4 243.2 1007.2 243.3C1007 243.4 1006.8 243.2 1006.8 242.9C1006.8 242.6 1007.1 242.2 1007.4 242.2C1007.8 242.2 1008 241.8 1008 241.3C1008 240.8 1008.2 240.4 1008.4 240.4C1008.6 240.4 1008.8 240.1 1008.8 239.7C1008.8 239.3 1009.3 238.6 1009.9 238.2C1010.5 237.7 1011 237.1 1011 236.9C1011 236.6 1010.7 236.8 1010.4 237.3C1009.8 238.1 1009.8 238.1 1009.8 236.9C1009.8 236.2 1010 235.7 1010.2 235.7C1010.4 235.7 1010.6 235.3 1010.6 234.7C1010.6 234.2 1010.8 233.4 1011.1 233.1C1011.5 232.6 1011.5 232.6 1011.1 232.8C1010.8 233 1010.6 232.9 1010.6 232.7C1010.6 232.5 1010.8 232.2 1011.1 232.1C1011.7 231.9 1011.7 226.8 1011 226.6C1010.8 226.5 1010.6 226.1 1010.6 225.6C1010.6 225.1 1010.4 224.8 1010.2 224.8C1010 224.8 1009.8 224.5 1009.8 224C1009.8 223.6 1009.4 223 1008.9 222.6C1008 221.9 1007.7 221 1008.5 221.6C1008.8 221.8 1008.9 221.7 1008.7 221.4C1008.5 221.1 1008 221 1007.5 221.2C1006.9 221.4 1006.7 221.3 1006.8 220.9C1007.1 220.1 1005.2 218.1 1004.8 218.8C1004.5 219.3 1003.3 218.3 1003.3 217.6C1003.3 217.4 1002.9 217.3 1002.4 217.4C1001.8 217.5 1001.5 217.4 1001.5 217C1001.5 216.6 1001.1 216.4 1000.2 216.6C999.4 216.7 998.9 216.6 998.9 216.3C998.9 216 997.7 215.8 995.6 215.8C992.9 215.8 992.4 215.7 992.6 215.2C992.7 214.9 992.7 214.4 992.4 214.3C992.2 214.2 992 214.3 992 214.5C992 214.8 991.7 215 991.3 215C990.9 215 990.7 214.8 990.9 214.6C991 214.4 990.9 214.2 990.7 214.2C990.4 214.2 990.3 214.5 990.5 215.1C990.8 215.9 990.6 216 988.2 216C986.8 216 985.6 215.8 985.6 215.6C985.6 215.4 985.3 215.3 984.9 215.5C984.4 215.7 984.4 215.8 984.7 216C985.7 216.3 985.2 217 983.9 217C983.2 217 982.6 217.2 982.6 217.4C982.6 217.6 982.2 217.8 981.7 217.8C981.2 217.8 980.8 218 980.8 218.2C980.8 218.4 980.4 218.6 979.9 218.6C979.4 218.6 979.1 218.8 979.3 219C979.5 219.3 979 219.4 978.1 219.4C976.8 219.4 976.6 219.5 976.8 220.3C977 221.1 975.6 222.9 974.7 222.9C974.5 222.9 974.3 223.3 974.3 223.9C974.3 224.4 973.9 225.2 973.4 225.5C972.9 225.8 972.5 226.5 972.5 226.9C972.5 227.3 972.3 227.7 972.1 227.7C971.9 227.7 971.7 228.1 971.7 228.5C971.7 229 971.3 229.4 970.6 229.6C969.7 229.8 969.6 230 970 230.4C970.6 231 970.7 232.5 970.1 232.5C969.9 232.5 969.7 233.1 969.7 233.8C969.7 234.8 969.5 235.1 968.8 235.1C968.2 235.1 967.9 235.4 967.9 236C967.9 236.5 968.1 236.8 968.3 236.6C968.5 236.4 968.7 236.8 968.7 237.4C968.7 238 968.5 238.5 968.2 238.6C967.9 238.7 967.7 239.7 967.8 241.4C967.9 243.6 967.8 244.1 967.2 244.1C966.8 244.1 966.6 244.3 966.8 244.7C966.9 245 966.8 245.7 966.5 246.3C966.2 246.9 966.1 247.2 966.5 247C966.8 246.8 967 247.1 967 247.6C967 248.1 966.7 248.5 966.3 248.5C965.3 248.5 962.5 245.5 962.8 244.8C963 244.3 962.9 244.3 962.2 244.7C961.5 245.1 961.3 245.1 961 244.6C960.7 244.2 959.9 244 958.1 244.1C956.1 244.2 955.7 244.1 956.1 243.6C956.5 243.2 956.4 243 955.7 243C955.2 243 954.9 243.2 955 243.4C955.3 244.4 954 245 951.5 244.9C949.9 244.8 949 245 948.9 245.3C948.8 245.6 948.3 245.8 947.9 245.8C947.4 245.8 947.1 245.6 947.3 245.3C947.5 245 947.2 245.2 946.7 245.7C946.1 246.4 945.4 246.7 944.1 246.7C943.1 246.7 942.3 246.9 942.3 247.1C942.3 247.3 941.7 247.5 941 247.5C940.3 247.5 939.7 247.7 939.7 247.9C939.7 248.1 939.6 248.3 939.4 248.3C938.2 248.1 937.1 248.4 937.1 249C937.1 249.4 936.7 249.6 935.8 249.6C935.1 249.6 934.5 249.8 934.5 250C934.5 250.2 933.9 250.4 933.1 250.4C932.3 250.4 931.6 250.6 931.6 250.9C931.6 251.2 931.1 251.4 930.6 251.4C930.1 251.4 929.8 251.6 929.8 251.8C929.8 252 929.4 252.2 928.9 252.2C928.4 252.2 928 252.4 928 252.6C928 252.8 927.6 253 927.1 253C926.6 253 926.2 253.2 926.2 253.4C926.2 253.6 925.8 253.8 925.3 253.8C924.8 253.8 924.4 254 924.4 254.2C924.4 254.4 923.8 254.6 923.1 254.6C922.4 254.6 921.9 254.8 922 255C922.1 255.2 921.8 255.3 921.2 255.3C920.4 255.2 920.1 255.4 919.9 256.2C919.7 257 919.4 257.2 918.6 257.1C917.8 256.9 917.6 257.1 917.8 257.8C918 258.6 917.9 258.6 916.6 258.4C915.8 258.3 915.4 258.2 915.7 258.4C916.6 258.8 916.3 259.5 915.3 259.2C914.8 259.1 914.6 259.1 914.9 259.2C915.8 259.6 915.5 260.2 914.4 260.2C913.8 260.2 913.3 260.4 913.1 260.7C912.9 261.1 912.8 261.1 912.4 260.6C912 260 911.9 260 912 260.6C912 261 911.9 261.6 911.8 262C911.4 263 910.2 263 910.6 262C910.8 261.5 910.7 261.4 910.4 261.6C910.1 261.8 909.9 262.9 909.9 264C909.9 265.5 909.7 266.1 909.3 266.1C908.9 266.1 908.8 266.6 908.9 267.6C909 268.5 908.9 269.1 908.6 269.1C908.3 269.1 908.1 269.7 908.1 270.4C908.1 271.1 907.9 271.7 907.7 271.7C907.5 271.7 907.3 272.5 907.3 273.4C907.3 274.4 907.1 275.1 906.9 275.1C906.7 275.1 906.5 275.9 906.5 276.9C906.5 278.6 905.6 280.2 905 279.6C904.9 279.5 904.7 279.6 904.7 279.8C904.7 280.1 904.9 280.3 905.1 280.3C905.3 280.3 905.5 280.8 905.5 281.4C905.5 282.1 905.3 282.5 904.9 282.5C904.4 282.5 904.3 283.1 904.3 284.9C904.3 286.7 904.2 287.3 903.8 287.1C903.4 286.9 903.3 287.5 903.3 289.2C903.3 290.5 903.2 291.4 903 291.3C902.5 291 902.5 291.5 902.6 294.5C902.7 296.1 902.5 296.8 902.1 296.8C901.7 296.8 901.7 296.9 902.2 297.2C902.8 297.6 902.8 297.7 902.2 298C901.7 298.3 901.6 299.5 901.6 303.6C901.6 307.9 901.6 308.8 901 308.8C900.5 308.8 900.4 309.3 900.4 310.5C900.4 311.7 900.6 312.2 901 312.2C901.9 312.2 901.9 319.1 901.1 319.9C900.8 320.2 900.8 320.4 901 320.4C902.3 320.1 902.5 320.5 902.5 323.2C902.5 324.8 902.7 326 902.9 326C903.1 326 903.3 326.8 903.3 327.7C903.3 328.7 903.5 329.4 903.8 329.4C904.1 329.4 904.2 329.9 904.1 330.7C903.9 331.8 904.1 332 904.7 332C905.4 332 905.5 332.3 905.3 333.9C905.2 335.3 905.3 335.8 905.7 335.8C906 335.8 906.3 336.2 906.3 336.7C906.3 337.2 906.5 337.6 906.8 337.6C907.1 337.6 907.2 338 907.1 338.5C907 339 907.1 339.6 907.5 340C907.8 340.3 908.1 341 908.1 341.5C908.1 342 908.3 342.4 908.5 342.4C908.7 342.4 908.9 343 908.9 343.7C908.9 344.4 909.1 345 909.3 345C909.5 345 909.7 345.4 909.7 345.9C909.7 346.4 909.9 346.8 910.1 346.8C910.3 346.8 910.5 347.2 910.5 347.7C910.5 348.2 910.7 348.6 911 348.6C911.3 348.6 911.4 349 911.3 349.5C911.1 350.1 911.3 350.4 911.7 350.4C912.1 350.4 912.3 350.7 912.1 351.3C911.9 351.8 912 352.2 912.3 352.2C912.6 352.2 912.7 352 912.5 351.8C912.4 351.6 912.5 351.4 912.7 351.4C913 351.4 913.1 351.8 913 352.5C912.9 353.2 913 353.6 913.4 353.6C913.7 353.6 914 354 914 354.5C914 355 914.2 355.4 914.5 355.4C915.1 355.4 916.2 356.5 916.2 357.1C916.2 357.4 916 357.6 915.7 357.6C915.4 357.6 915.4 357.8 915.5 358C915.6 358.2 916 358.3 916.4 358.2C916.8 358.1 917 358.2 917 358.4C917 358.7 917.6 358.9 918.3 358.9C919 358.9 920.9 360.2 920.9 360.4Z" fill="#102237"></path></svg> 