<svg xmlns="http://www.w3.org/2000/svg" fill="none" viewBox="0 0 435.56 98"><g clip-path="url(#a)"><path d="M29.128 98c-4.416 0-8.348-.665-11.796-1.996-3.449-1.331-6.383-3.176-8.802-5.535a24.784 24.784 0 0 1-5.445-8.167c-1.21-3.085-1.814-6.382-1.814-9.89v-2.179c0-3.63.635-7.017 1.905-10.163a25.037 25.037 0 0 1 5.626-8.257c2.42-2.36 5.354-4.204 8.802-5.535 3.448-1.331 7.29-1.996 11.524-1.996 4.295 0 8.136.665 11.524 1.996 3.448 1.33 6.382 3.176 8.802 5.535a23.916 23.916 0 0 1 5.535 8.257c1.33 3.146 1.996 6.534 1.996 10.163v2.178c0 3.509-.635 6.806-1.905 9.89-1.21 3.086-3.025 5.808-5.445 8.168-2.359 2.359-5.263 4.204-8.71 5.535C37.475 97.334 33.543 98 29.127 98Zm0-13.793c2.54 0 4.628-.544 6.261-1.633 1.694-1.089 2.964-2.601 3.811-4.537.847-1.996 1.27-4.235 1.27-6.715 0-2.601-.453-4.87-1.36-6.805-.848-1.997-2.118-3.57-3.812-4.719-1.694-1.15-3.75-1.724-6.17-1.724s-4.477.575-6.17 1.724c-1.694 1.15-2.995 2.722-3.902 4.719-.847 1.936-1.27 4.204-1.27 6.805 0 2.48.423 4.719 1.27 6.715.847 1.936 2.117 3.448 3.81 4.537 1.695 1.089 3.782 1.633 6.262 1.633ZM143.587 97.82c-7.26 0-12.976-1.483-17.15-4.447-4.174-3.025-6.413-7.26-6.715-12.704h14.518c.242 1.513 1.18 2.813 2.813 3.902 1.634 1.09 3.932 1.634 6.897 1.634 2.117 0 3.932-.303 5.444-.908 1.573-.665 2.359-1.724 2.359-3.176 0-1.27-.605-2.299-1.814-3.085-1.21-.847-3.418-1.421-6.625-1.724l-3.448-.363c-6.412-.665-11.131-2.42-14.155-5.263-3.025-2.843-4.537-6.412-4.537-10.707 0-3.69.907-6.715 2.722-9.074 1.815-2.42 4.325-4.235 7.531-5.445 3.207-1.21 6.867-1.815 10.98-1.815 6.715 0 12.129 1.483 16.243 4.447 4.113 2.903 6.291 7.108 6.533 12.613h-14.519c-.241-1.513-1.058-2.783-2.45-3.811-1.391-1.09-3.387-1.634-5.988-1.634-1.876 0-3.418.333-4.628.998-1.15.666-1.724 1.603-1.724 2.813 0 1.27.544 2.208 1.633 2.813 1.15.605 2.964 1.059 5.444 1.361l3.449.363c6.412.666 11.342 2.45 14.79 5.354 3.509 2.843 5.263 6.594 5.263 11.252 0 3.448-.937 6.412-2.813 8.893-1.814 2.48-4.446 4.385-7.894 5.716-3.388 1.331-7.441 1.996-12.159 1.996Zm50.148-1.634 8.893-48.455h17.241l10.163 48.455h-12.523l-10.526-48.092h7.623l-9.619 48.092h-11.252Zm-3.085 0-.091-13.792h9.982l.091 13.792h-9.982Zm-8.076 0-13.157-50.089h16.152l12.159 50.09h-15.154Zm39.382 0 .09-13.792h9.982l-.091 13.792h-9.981Zm3.992 0 10.98-50.089h15.063l-11.978 50.09h-14.065Zm36.414 0v-50.09h16.515v50.09h-16.515Zm-6.351-38.11V46.095h22.866v11.978h-22.866Zm13.157-15.971c-3.025 0-5.263-.757-6.715-2.269-1.392-1.573-2.087-3.569-2.087-5.989s.695-4.385 2.087-5.898c1.452-1.573 3.659-2.36 6.624-2.36 3.024 0 5.232.787 6.624 2.36 1.391 1.512 2.087 3.479 2.087 5.898 0 2.42-.696 4.416-2.087 5.99-1.392 1.511-3.569 2.268-6.533 2.268Zm45.715 54.807c-5.444 0-9.8-.665-13.066-1.996-3.207-1.331-5.536-3.54-6.987-6.624-1.452-3.085-2.178-7.26-2.178-12.522l.09-42.74h15.245l-.091 43.193c0 2.238.574 3.963 1.724 5.172 1.209 1.15 2.933 1.724 5.172 1.724h6.897v13.793h-6.806Zm-29.491-38.837V46.096h36.297v11.978h-36.297ZM353.228 98c-4.355 0-8.135-.696-11.342-2.087-3.205-1.452-5.898-3.388-8.076-5.807a25.128 25.128 0 0 1-4.809-8.258 30.227 30.227 0 0 1-1.543-9.618v-1.815c0-3.509.545-6.836 1.633-9.982 1.151-3.145 2.813-5.928 4.991-8.348 2.178-2.42 4.871-4.325 8.076-5.717 3.207-1.39 6.896-2.087 11.07-2.087 4.599 0 8.652.908 12.16 2.723 3.51 1.815 6.292 4.325 8.348 7.531 2.118 3.146 3.297 6.775 3.539 10.89h-16.152c-.182-1.997-.937-3.691-2.269-5.082-1.27-1.392-3.145-2.088-5.626-2.088-2.116 0-3.871.545-5.263 1.634-1.33 1.089-2.328 2.601-2.994 4.537-.664 1.936-.998 4.234-.998 6.896 0 2.48.272 4.688.817 6.624.606 1.936 1.573 3.448 2.903 4.537 1.392 1.029 3.238 1.543 5.535 1.543 1.695 0 3.116-.303 4.265-.907a6.865 6.865 0 0 0 2.722-2.541c.666-1.15 1.089-2.48 1.271-3.993h16.152c-.242 4.235-1.452 7.955-3.63 11.161-2.116 3.207-4.96 5.717-8.53 7.532-3.567 1.815-7.651 2.722-12.25 2.722Zm32.783-1.815v-66.24h16.515v37.748h-2.178c0-5.082.635-9.347 1.906-12.795 1.27-3.448 3.116-6.05 5.535-7.804 2.481-1.754 5.535-2.631 9.165-2.631h.726c5.444 0 9.589 1.966 12.431 5.898 2.904 3.932 4.356 9.71 4.356 17.332v28.492h-16.515V67.057c0-2.298-.695-4.174-2.087-5.626-1.39-1.512-3.236-2.268-5.535-2.268-2.298 0-4.174.756-5.626 2.269-1.452 1.451-2.178 3.387-2.178 5.807v28.946h-16.515Z" fill="#fff"/><path d="M64.938 96.185V81.667c0-2.904.484-5.445 1.451-7.623 1.029-2.238 2.602-4.204 4.719-5.898 2.178-1.694 4.99-3.266 8.439-4.718l10.072-4.265c2.602-1.089 4.477-2.39 5.626-3.902 1.21-1.512 1.815-3.418 1.815-5.717 0-2.117-.726-3.901-2.178-5.353-1.391-1.513-3.448-2.269-6.17-2.269-2.783 0-4.87.787-6.261 2.36-1.392 1.512-2.087 3.569-2.087 6.17H64.03c0-4.356.938-8.227 2.813-11.615 1.876-3.388 4.628-6.05 8.258-7.985 3.69-1.936 8.227-2.904 13.61-2.904 5.324 0 9.8.938 13.43 2.813 3.691 1.815 6.473 4.325 8.349 7.532 1.935 3.145 2.903 6.714 2.903 10.707v1.089c0 5.142-1.391 9.377-4.174 12.704-2.782 3.327-7.259 6.321-13.43 8.983L85.718 76.04c-1.451.605-2.54 1.27-3.266 1.996-.666.726-.998 1.694-.998 2.904v3.266l-3.902-2.54h35.661v14.518H64.938Z" fill="url(#b)"/></g><circle cx="47.185" cy="21.778" r="12.704" fill="#707E8E"/><circle cx="75.315" cy="9.981" r="9.981" fill="#707E8E"/><circle cx="100.722" cy="8.167" r="6.352" fill="#707E8E"/><circle cx="119.778" cy="16.333" r="5.444" fill="#707E8E"/><circle cx="134.296" cy="29.037" r="3.63" fill="#707E8E"/><defs><linearGradient id="b" x1="2.408" y1="59.005" x2="406.858" y2="59.005" gradientUnits="userSpaceOnUse"><stop stop-color="#FF5722"/><stop offset=".115" stop-color="#FF5B20"/><stop offset=".229" stop-color="#FF6819"/><stop offset=".75" stop-color="#FF7D0E"/><stop offset="1" stop-color="#FF9800"/></linearGradient><clipPath id="a"><path fill="#fff" transform="translate(0 25.407)" d="M0 0h435.556v72.593H0z"/></clipPath></defs></svg>